# xmcd
#
# Track frame offsets: 
#        150
#        2370
#        12594
#        35899
#        50295
#        69798
#        85462
#        112238
#        140832
#        167131
#        196452
#        219550
#        238841
#        264997
#        285877
#        313252
#
# Disc length: 4442 seconds
#
# Revision: 0
# Processed by: cddbd v1.5.2PL0 Copyright (c) Steve Scherf et al.
# Submitted via: ExactAudioCopyFreeDBPlugin 1.0
#
DISCID=ea115810
DTITLE=Nuwamba - Above the Water
DYEAR=2005
DGENRE=Soul
TTITLE0=Beginning Word
TTITLE1=Smooth Intro
TTITLE2=Tease (Soulmix)
TTITLE3=Forever
TTITLE4=Savior
TTITLE5=When Words are Spoken
TTITLE6=All Mine
TTITLE7=Heaven
TTITLE8=Put It Down
TTITLE9=Above the Water
TTITLE10=Caught Up
TTITLE11=Sweetness
TTITLE12=Tease (Acoustic)
TTITLE13=Take Me Away
TTITLE14=Smooth Outro
TTITLE15=Tease (Ernie G Remix)
EXTD=
EXTT0=
EXTT1=
EXTT2=
EXTT3=
EXTT4=
EXTT5=
EXTT6=
EXTT7=
EXTT8=
EXTT9=
EXTT10=
EXTT11=
EXTT12=
EXTT13=
EXTT14=
EXTT15=
PLAYORDER=
